HIERARCHY
ROOT Hips
{
	OFFSET 0.00000 0.00000 0.00000
	CHANNELS 6 Xposition Yposition Zposition Zrotation Yrotation Xrotation 
	JOINT LHipJoint
	{
		OFFSET 0 0 0
		CHANNELS 3 Zrotation Yrotation Xrotation
		JOINT LeftHip
		{
			OFFSET 1.54859 -1.61379 0.86856
			CHANNELS 3 Zrotation Yrotation Xrotation
			JOINT LeftKnee
			{
				OFFSET 2.25087 -6.18423 0.00000
				CHANNELS 3 Zrotation Yrotation Xrotation
				JOINT LeftAnkle
				{
					OFFSET 2.40328 -6.60297 0.00000
					CHANNELS 3 Zrotation Yrotation Xrotation
					JOINT LeftToe
					{
						OFFSET 0.17435 -0.47901 2.02453
						CHANNELS 3 Zrotation Yrotation Xrotation
						End Site
						{
							OFFSET 0.00000 -0.00000 1.04844
						}
					}
				}
			}
		}
	}
	JOINT RHipJoint
	{
		OFFSET 0 0 0
		CHANNELS 3 Zrotation Yrotation Xrotation
		JOINT RightHip
		{
			OFFSET -1.54669 -1.61379 0.86856
			CHANNELS 3 Zrotation Yrotation Xrotation
			JOINT RightKnee
			{
				OFFSET -2.28132 -6.26789 0.00000
				CHANNELS 3 Zrotation Yrotation Xrotation
				JOINT RightAnkle
				{
					OFFSET -2.51636 -6.91365 0.00000
					CHANNELS 3 Zrotation Yrotation Xrotation
					JOINT RightToe
					{
						OFFSET -0.15124 -0.41552 2.21090
						CHANNELS 3 Zrotation Yrotation Xrotation
						End Site
						{
							OFFSET -0.00000 -0.00000 1.13399
						}
					}
				}
			}
		}
	}
	JOINT lowerback
	{
		OFFSET 0 0 0
		CHANNELS 3 Zrotation Yrotation Xrotation
		JOINT Chest
		{
			OFFSET -0.04287 2.26161 -0.25690
			CHANNELS 3 Zrotation Yrotation Xrotation
			JOINT Chest2
			{
				OFFSET 0.02248 2.28395 -0.10140
				CHANNELS 3 Zrotation Yrotation Xrotation
				JOINT lowerneck
				{
					OFFSET 0 0 0
					CHANNELS 3 Zrotation Yrotation Xrotation
					JOINT Neck
					{
						OFFSET -0.11644 1.38496 0.11345
						CHANNELS 3 Zrotation Yrotation Xrotation
						JOINT Head
						{
							OFFSET 0.29383 1.36600 0.06642
							CHANNELS 3 Zrotation Yrotation Xrotation
							End Site
							{
								OFFSET 0.11075 1.41395 -0.00294
							}
						}
					}
				}
				JOINT LeftCollar
				{
					OFFSET 0 0 0
					CHANNELS 3 Zrotation Yrotation Xrotation
					JOINT LeftShoulder
					{
						OFFSET 3.51628 0.59542 -0.30346
CHANNELS 3 Zrotation Xrotation Yrotation
						JOINT LeftElbow
						{
OFFSET 0 -4.764050 0.000000
CHANNELS 3 Zrotation Xrotation Yrotation
							JOINT LeftWrist
							{
OFFSET 0 -3.137590 -0.000000
CHANNELS 3 Zrotation Xrotation Yrotation
								JOINT lhand
								{
									OFFSET 0 0 0
CHANNELS 3 Zrotation Xrotation Yrotation
									JOINT LFingers
									{
OFFSET 0 -0.732260 -0.000000
CHANNELS 3 Zrotation Xrotation Yrotation
										End Site
										{
OFFSET 0 -0.590370 -0.000000
										}
									}
								}
								JOINT LThumb
								{
OFFSET 0 0.000000 0.000000
CHANNELS 3 Zrotation Xrotation Yrotation
									End Site
									{
OFFSET 0 -0.599380 0.599380
									}
								}
							}
						}
					}
				}
				JOINT RightCollar
				{
					OFFSET 0 0 0
					CHANNELS 3 Zrotation Yrotation Xrotation
					JOINT RightShoulder
					{
						OFFSET -3.30990 0.84213 -0.36430
CHANNELS 3 Zrotation Xrotation Yrotation
						JOINT RightElbow
						{
OFFSET 0 -5.101610 -0.000000
CHANNELS 3 Zrotation Xrotation Yrotation
							JOINT RightWrist
							{
OFFSET 0 -3.232670 -0.000000
CHANNELS 3 Zrotation Xrotation Yrotation
								JOINT rhand
								{
									OFFSET 0 0 0
CHANNELS 3 Zrotation Xrotation Yrotation
									JOINT RFingers
									{
OFFSET 0 -0.702000 -0.000000
CHANNELS 3 Zrotation Xrotation Yrotation
										End Site
										{
OFFSET 0 -0.565970 -0.000000
										}
									}
								}
								JOINT RThumb
								{
OFFSET 0 0.000000 0.000000
CHANNELS 3 Zrotation Xrotation Yrotation
									End Site
									{
OFFSET 0 -0.574610 0.574610
									}
								}
							}
						}
					}
				}
			}
		}
	}
}
MOTION
Frames: 9
Frame Time: 0.008333333333333333
-34.481700 14.814400 15.330000 170.989000 43.806700 179.208000 0.000000 0.000000 0.000000 -16.138300 9.003600 -13.890400 4.776800 13.127900 39.849300 -0.270000 16.727500 -20.983000 9.602300 17.180100 58.150800 0.000000 0.000000 0.000000 7.707800 -18.112500 -34.440700 -13.586500 -18.983800 70.937600 -1.339300 -11.209900 -28.496800 -0.029200 -1.102500 3.030800 -11.687500 4.855200 9.693400 -5.583500 6.486200 6.479800 0.047000 3.392500 0.932300 -16.608700 -10.970700 -7.134700 25.580000 -10.868500 -15.017200 10.473000 -4.684500 -0.408200 -0.000000 0.000000 0.000000 5.797900 9.170100 -31.023300 113.213200 -57.862700 79.958900 5.102000 170.742400 -18.779300 0.000000 0.000000 0.000000 -7.125000 0.000000 0.000000 -22.004900 47.546700 1.449700 -0.000000 0.000000 0.000000 5.867300 -3.180500 69.814100 -61.766300 -56.762500 -35.814600 -23.334100 -45.244100 -25.353800 0.000000 0.000000 0.000000 7.125000 0.000000 -0.000000 3.819600 2.736300 3.641100
-34.452912 14.809711 15.326118 170.947154 43.841286 179.128593 0.000000 0.000000 0.000000 -16.068396 9.163650 -13.713939 4.762885 13.111615 39.787942 -0.254169 16.689662 -21.095607 9.605527 17.182016 58.161741 0.000000 0.000000 0.000000 7.404892 -18.020841 -34.588952 -13.605911 -18.990102 70.997219 -1.381046 -10.980652 -28.603483 -0.045737 -1.325143 3.644707 -11.724078 4.818799 9.775984 -5.605003 6.436337 6.525075 0.044504 3.369686 0.940871 -16.488354 -10.877100 -7.169337 25.488820 -10.767968 -14.898644 10.426011 -4.638746 -0.406763 0.000000 0.000000 0.000000 5.639766 9.028049 -31.133386 112.758612 -57.946494 79.573258 5.262327 170.867183 -18.458721 0.000000 0.000000 0.000000 -7.125000 0.000000 0.000000 -21.726016 47.269253 1.280726 0.000000 0.000000 0.000000 6.074818 -3.072178 69.267803 -61.372162 -56.661968 -35.485702 -23.373753 -45.223807 -25.524059 0.000000 0.000000 0.000000 7.125000 0.000000 0.000000 3.816575 2.550361 3.651083
-34.424123 14.805022 15.322236 170.905307 43.875873 179.049185 0.000000 0.000000 0.000000 -15.998493 9.323700 -13.537478 4.748970 13.095330 39.726584 -0.238338 16.651824 -21.208214 9.608753 17.183932 58.172681 0.000000 0.000000 0.000000 7.101985 -17.929182 -34.737205 -13.625321 -18.996404 71.056837 -1.422791 -10.751405 -28.710166 -0.062274 -1.547786 4.258614 -11.760656 4.782397 9.858567 -5.626506 6.386474 6.570350 0.042009 3.346872 0.949442 -16.368008 -10.783500 -7.203973 25.397640 -10.667436 -14.780087 10.379022 -4.592992 -0.405326 0.000000 0.000000 0.000000 5.481632 8.885998 -31.243473 112.304024 -58.030287 79.187615 5.422654 170.991966 -18.138142 0.000000 0.000000 0.000000 -7.125000 0.000000 0.000000 -21.447133 46.991807 1.111752 0.000000 0.000000 0.000000 6.282336 -2.963857 68.721505 -60.978025 -56.561436 -35.156805 -23.413407 -45.203514 -25.694319 0.000000 0.000000 0.000000 7.125000 0.000000 0.000000 3.813550 2.364422 3.661065
-34.395335 14.800334 15.318354 170.863461 43.910459 178.969778 0.000000 0.000000 0.000000 -15.928589 9.483750 -13.361018 4.735054 13.079046 39.665226 -0.222507 16.613985 -21.320822 9.611980 17.185848 58.183622 0.000000 0.000000 0.000000 6.799077 -17.837524 -34.885457 -13.644732 -19.002707 71.116456 -1.464537 -10.522157 -28.816849 -0.078811 -1.770429 4.872521 -11.797233 4.745996 9.941151 -5.648009 6.336612 6.615624 0.039513 3.324058 0.958013 -16.247661 -10.689901 -7.238610 25.306461 -10.566903 -14.661531 10.332033 -4.547239 -0.403889 0.000000 0.000000 0.000000 5.323498 8.743947 -31.353559 111.849436 -58.114081 78.801973 5.582982 171.116749 -17.817564 0.000000 0.000000 0.000000 -7.125000 0.000000 0.000000 -21.168249 46.714360 0.942779 0.000000 0.000000 0.000000 6.489854 -2.855535 68.175208 -60.583887 -56.460903 -34.827907 -23.453060 -45.183221 -25.864578 0.000000 0.000000 0.000000 7.125000 0.000000 0.000000 3.810525 2.178482 3.671048
-34.366515 14.795616 15.314401 170.821614 43.946569 178.890663 0.000000 0.000000 0.000000 -15.859218 9.643810 -13.183793 4.720764 13.062308 39.602184 -0.207298 16.579105 -21.431318 9.615324 17.187832 58.194955 0.000000 0.000000 0.000000 6.496138 -17.745135 -35.034073 -13.664174 -19.009016 71.176170 -1.505625 -10.296689 -28.922053 -0.094763 -1.985309 5.465019 -11.836183 4.709235 10.022614 -5.667275 6.285829 6.660251 0.040790 3.300558 0.966130 -16.131689 -10.594723 -7.274310 25.214384 -10.464548 -14.540382 10.285563 -4.500394 -0.401720 0.000000 0.000000 0.000000 5.159648 8.603139 -31.461105 111.391919 -58.198076 78.413789 5.747502 171.239872 -17.501352 0.000000 0.000000 0.000000 -7.125000 0.000000 0.000000 -20.887668 46.441418 0.776610 0.000000 0.000000 0.000000 6.691332 -2.745303 67.634100 -60.195839 -56.361828 -34.504112 -23.491372 -45.172486 -26.029821 0.000000 0.000000 0.000000 7.125000 0.000000 0.000000 3.807695 1.998056 3.680837
-34.336769 14.790070 15.308402 170.779768 44.027187 178.820078 0.000000 0.000000 0.000000 -15.805397 9.804162 -12.984266 4.695531 13.032334 39.489955 -0.210273 16.630607 -21.480172 9.622080 17.191815 58.217769 0.000000 0.000000 0.000000 6.192273 -17.631444 -35.193316 -13.684543 -19.015545 71.238688 -1.527506 -10.181586 -28.984067 -0.093654 -1.973486 5.432374 -11.944378 4.661969 10.071342 -5.621219 6.208186 6.685938 0.152238 3.256997 0.960987 -16.143436 -10.453479 -7.341063 25.096130 -10.308960 -14.343527 10.254254 -4.421692 -0.378175 0.000000 0.000000 0.000000 4.828884 8.498624 -31.494481 110.848899 -58.287945 77.951412 6.034452 171.314515 -17.312665 0.000000 0.000000 0.000000 -7.125000 0.000000 0.000000 -20.557536 46.300023 0.692337 0.000000 0.000000 0.000000 6.716465 -2.579304 67.244525 -59.985624 -56.305285 -34.329315 -23.490515 -45.440832 -26.048576 0.000000 0.000000 0.000000 7.125000 0.000000 0.000000 3.810569 1.978621 3.684971
-34.307023 14.784525 15.302402 170.737922 44.107804 178.749494 0.000000 0.000000 0.000000 -15.751577 9.964515 -12.784740 4.670297 13.002361 39.377726 -0.213248 16.682108 -21.529027 9.628836 17.195798 58.240583 0.000000 0.000000 0.000000 5.888407 -17.517753 -35.352559 -13.704912 -19.022074 71.301205 -1.549387 -10.066483 -29.046080 -0.092545 -1.961663 5.399729 -12.052574 4.614702 10.120070 -5.575162 6.130544 6.711626 0.263685 3.213436 0.955845 -16.155183 -10.312235 -7.407816 24.977876 -10.153372 -14.146672 10.222945 -4.342991 -0.354631 0.000000 0.000000 0.000000 4.498121 8.394109 -31.527858 110.305879 -58.377814 77.489034 6.321403 171.389157 -17.123978 0.000000 0.000000 0.000000 -7.125000 0.000000 0.000000 -20.227403 46.158627 0.608064 0.000000 0.000000 0.000000 6.741598 -2.413305 66.854950 -59.775409 -56.248742 -34.154518 -23.489657 -45.709178 -26.067332 0.000000 0.000000 0.000000 7.125000 0.000000 0.000000 3.813443 1.959185 3.689105
-34.277276 14.778979 15.296402 170.696075 44.188422 178.678910 0.000000 0.000000 0.000000 -15.697756 10.124867 -12.585213 4.645063 12.972388 39.265497 -0.216222 16.733609 -21.577881 9.635591 17.199781 58.263397 0.000000 0.000000 0.000000 5.584542 -17.404062 -35.511803 -13.725280 -19.028603 71.363723 -1.571268 -9.951380 -29.108093 -0.091436 -1.949840 5.367083 -12.160770 4.567436 10.168799 -5.529106 6.052901 6.737314 0.375133 3.169876 0.950702 -16.166931 -10.170990 -7.474568 24.859623 -9.997784 -13.949818 10.191636 -4.264289 -0.331086 0.000000 0.000000 0.000000 4.167358 8.289594 -31.561234 109.762859 -58.467683 77.026657 6.608353 171.463800 -16.935291 0.000000 0.000000 0.000000 -7.125000 0.000000 0.000000 -19.897270 46.017232 0.523792 0.000000 0.000000 0.000000 6.766731 -2.247306 66.465375 -59.565194 -56.192198 -33.979721 -23.488800 -45.977525 -26.086087 0.000000 0.000000 0.000000 7.125000 0.000000 0.000000 3.816317 1.939749 3.693240
-34.247543 14.773396 15.290259 170.653661 44.269895 178.608927 0.000000 0.000000 0.000000 -15.645794 10.283188 -12.386910 4.619852 12.942412 39.153311 -0.220980 16.793106 -21.620575 9.644603 17.205078 58.293810 0.000000 0.000000 0.000000 5.279678 -17.289042 -35.672502 -13.744781 -19.034852 71.423572 -1.591837 -9.840024 -29.164122 -0.089886 -1.932740 5.319875 -12.266040 4.519674 10.216060 -5.484871 5.974954 6.761959 0.483270 3.126302 0.945763 -16.173217 -10.030728 -7.542883 24.739951 -9.844552 -13.748678 10.158425 -4.186905 -0.305986 0.000000 0.000000 0.000000 3.839393 8.184431 -31.607096 109.218977 -58.556959 76.563431 6.858614 171.558966 -16.742235 0.000000 0.000000 0.000000 -7.125000 0.000000 0.000000 -19.598334 45.867195 0.435995 0.000000 0.000000 0.000000 6.790310 -2.078263 66.076909 -59.366494 -56.138739 -33.814502 -23.492070 -46.252663 -26.106688 0.000000 0.000000 0.000000 7.125000 0.000000 0.000000 3.816945 1.917560 3.695372
